<svg id="Layer_1" data-name="Layer 1" xmlns="http://www.w3.org/2000/svg" viewBox="0 0 111.67 40.98"><defs><style>.cls-1,.cls-3{fill:none;stroke:red;stroke-miterlimit:10;}.cls-1{stroke-width:3px;}.cls-2{fill:red;}.cls-3{stroke-width:2px;}</style></defs><title>Untitled-7</title><path class="cls-1" d="M782.28,488.21h30.16a9.43,9.43,0,0,1,9.43,9.43v15.64a9.44,9.44,0,0,1-9.43,9.44H782.08" transform="translate(-711.7 -484.98)"/><path class="cls-1" d="M752.79,488.21H722.63a9.43,9.43,0,0,0-9.43,9.43v15.64a9.44,9.44,0,0,0,9.43,9.44H753" transform="translate(-711.7 -484.98)"/><path class="cls-1" d="M751.41,489.09a6.36,6.36,0,0,1,4-2.61h24.17a6.3,6.3,0,0,1,4,2.61" transform="translate(-711.7 -484.98)"/><circle class="cls-2" cx="51.01" cy="16.63" r="2.94"/><circle class="cls-2" cx="60.69" cy="16.63" r="2.94"/><circle class="cls-2" cx="51.01" cy="24.34" r="2.94"/><circle class="cls-2" cx="60.69" cy="24.34" r="2.94"/><path class="cls-1" d="M783.48,521.88a6,6,0,0,1-3.9,2.58H755.41a5.82,5.82,0,0,1-3.8-2.58" transform="translate(-711.7 -484.98)"/><line class="cls-3" x1="34.58" y1="7.2" x2="10.2" y2="7.2"/><path class="cls-3" d="M814.28,492.3c3.27,0,3.27,5.72,3.27,5.72v14.89s0,4.44-3.65,5.33" transform="translate(-711.7 -484.98)"/></svg>