<svg id="Layer_1" data-name="Layer 1" xmlns="http://www.w3.org/2000/svg" viewBox="0 0 101.97 155.12"><defs><style>.cls-1{fill:none;stroke:red;stroke-miterlimit:10;stroke-width:3px;}</style></defs><title>Untitled-7</title><path class="cls-1" d="M883.5,306c0,.15,0,.31,0,.46V417.12a5.54,5.54,0,0,0,5.54,5.54h60.86a5.54,5.54,0,0,0,5.54-5.54V306.5c0-.15,0-.31,0-.46" transform="translate(-868.46 -269.04)"/><rect class="cls-1" x="1.5" y="1.5" width="98.97" height="35.5" rx="7.81" ry="7.81"/><rect class="cls-1" x="23.96" y="51.47" width="54.06" height="50.96" rx="5.97" ry="5.97"/><line class="cls-1" x1="30.29" y1="6.99" x2="30.29" y2="28.04"/><line class="cls-1" x1="45.23" y1="6.99" x2="45.23" y2="28.04"/><line class="cls-1" x1="60.16" y1="6.99" x2="60.16" y2="28.04"/><line class="cls-1" x1="75.1" y1="6.99" x2="75.1" y2="28.04"/><line class="cls-1" x1="90.03" y1="6.99" x2="90.03" y2="28.04"/><line class="cls-1" x1="14.32" y1="6.99" x2="14.32" y2="28.04"/></svg>