<svg id="Layer_1" data-name="Layer 1" xmlns="http://www.w3.org/2000/svg" viewBox="0 0 629.1 141.13"><defs><style>.cls-1{font-size:61.77px;font-family:Avenir-Light, Avenir;}</style></defs><title>Untitled-6</title><text class="cls-1" transform="translate(76.29 88.75)">MEDICAL ICONS</text><path d="M422.73,284.17a5.75,5.75,0,0,0-3.46,2.64,5.49,5.49,0,0,0,3.14,7.79,6,6,0,0,0,3.25,0,5.48,5.48,0,0,0,3.78-5.15,5.16,5.16,0,0,0-1.6-3.86A5.37,5.37,0,0,0,422.73,284.17Z" transform="translate(-367.45 -284)"/><path d="M404,284.49a14.16,14.16,0,0,0-5.37,1.6c-2.49,1.33-4.9,2.92-11,7.26-8,5.75-11.91,8.11-17.31,10.53-2.39,1.06-2.87,1.32-2.87,1.54s.53.92,1.17,1.25a7.18,7.18,0,0,0,4,.5,14.43,14.43,0,0,0,5.75-1.65,92.61,92.61,0,0,0,12.78-7.8,24.24,24.24,0,0,0,4.17-4.09c.57-.85.77-1.05.95-1s.16.37.16,1.46a10.08,10.08,0,0,0,1.43,5.47,11,11,0,0,0,3.05,3,8.82,8.82,0,0,0,5,1.17c1.45,0,1.46,0,1.46.25a1,1,0,0,1-.33.56c-.64.62-.71,1.56-.18,2.75a9.68,9.68,0,0,0,12.86,4.62l.61-.31,0-1.65c-.07-4-.17-6.8-.25-6.84a3.12,3.12,0,0,0-.94.16c-2.68.69-4.95.22-6.37-1.32a4.58,4.58,0,0,1-1.27-2.5c-.14-1.1-.05-1.29,1.18-2.49,2-1.89,2.65-3.11,2.75-4.83a5.61,5.61,0,0,0-.13-1.65,10,10,0,0,0-2.34-4.12C411.23,284.74,407.8,284,404,284.49Z" transform="translate(-367.45 -284)"/><path d="M439.86,284.44a12.19,12.19,0,0,0-3.49,1.06,7.1,7.1,0,0,0-3,3.49,6.1,6.1,0,0,0-.69,3.16c.1,1.72.79,2.94,2.75,4.83,1.23,1.2,1.32,1.39,1.18,2.49a4.58,4.58,0,0,1-1.27,2.5c-1.42,1.54-3.68,2-6.36,1.32a3.2,3.2,0,0,0-.95-.16c-.08,0-.18,2.85-.25,6.84l0,1.65.61.31a9.68,9.68,0,0,0,12.86-4.62c.53-1.19.46-2.13-.18-2.75a1,1,0,0,1-.33-.56c0-.25,0-.25,1.47-.25a8.86,8.86,0,0,0,5-1.17,10.94,10.94,0,0,0,3-3,10.08,10.08,0,0,0,1.43-5.47c0-1.88.14-1.93,1.11-.49a24.24,24.24,0,0,0,4.17,4.09,92.61,92.61,0,0,0,12.78,7.8,14.43,14.43,0,0,0,5.75,1.65,7.18,7.18,0,0,0,4-.5c.64-.33,1.17-.89,1.17-1.25s-.48-.48-2.86-1.54c-5.41-2.42-9.29-4.78-17.32-10.53-4.86-3.48-6.25-4.43-8.3-5.7a26.56,26.56,0,0,0-4.34-2.34A19.89,19.89,0,0,0,439.86,284.44Z" transform="translate(-367.45 -284)"/><path d="M420.47,295.76c0,.05,0,1.8,0,3.89s.14,5.94.21,8.55.16,6.65.22,9,.15,6.58.22,9.43.12,5.45.14,5.77,0,.58-.1.58a35.31,35.31,0,0,1-3.95-1.29c-3-1.21-4.93-2.61-6.14-4.44a6.91,6.91,0,0,1-1.18-4.12c-.06-1.88,0-2,.73-1.28a7.93,7.93,0,0,0,.8.68,5.61,5.61,0,0,0,4.31.36c1.89-.71,3.45-2.07,3.59-3.13a.84.84,0,0,0-.3-.83c-.77-.88-2.26-1.33-4.41-1.33-3,0-4.89.69-6.71,2.49a7.81,7.81,0,0,0-2.46,5.72,10.07,10.07,0,0,0,3.36,7.11,23.78,23.78,0,0,0,5.68,4.14l.91.52-1,.7a18,18,0,0,0-3.48,3.44,11.33,11.33,0,0,0-1.12,11.47c1.15,2.72,3.16,4.92,6.71,7.35l1,.65-.88.62c-3.35,2.34-5.14,4.63-5.83,7.42a13.33,13.33,0,0,0,0,4.5,17,17,0,0,0,5.7,9.49l1,.86-.59.62a9.46,9.46,0,0,0-2.83,6.74c0,3.53,1.39,5.68,5.91,9.12l.32.24-.9.84c-2.2,2-3.13,3.87-3.13,6.19a8,8,0,0,0,1.54,4.71c.71,1,1.19,1.5,1.28,1.27a10.66,10.66,0,0,0-.21-1.85,8.16,8.16,0,0,1-.12-3.68,5.4,5.4,0,0,1,1.54-2.6A10.4,10.4,0,0,1,423,403.6c.05,0,.16,3.67.37,13.14.08,3,.17,6.16.2,6.95l.08,1.44h.77l.08-1.33c0-.72.12-3.82.2-6.89.21-9.26.32-13.26.37-13.31s1.5.92,2.58,2a5.68,5.68,0,0,1,1.27,1.72l.47.93v1.33a12.92,12.92,0,0,1-.27,2.69,7.93,7.93,0,0,0-.19,1.54c.07.15.12.13.4-.13a11.73,11.73,0,0,0,1.72-2.55,7.27,7.27,0,0,0,.69-3.58c-.1-2.31-.94-3.91-3.06-5.83a6.66,6.66,0,0,1-.89-.88,5.23,5.23,0,0,1,1-.82c3.73-2.81,5.2-5.23,5.21-8.57a9.53,9.53,0,0,0-2.84-6.74l-.59-.62,1.1-.95a17.09,17.09,0,0,0,5.6-9.35,12.63,12.63,0,0,0-.07-4.79c-.71-2.67-2.42-4.82-5.59-7.06l-1-.74.95-.65a26.65,26.65,0,0,0,4.64-4,14.59,14.59,0,0,0,2.87-5.84,14.28,14.28,0,0,0-.05-5.1,13.65,13.65,0,0,0-5.35-7.36l-1-.7,1.2-.68c5.87-3.33,8.76-7,8.75-11.19a8.36,8.36,0,0,0-6.64-7.91,14.71,14.71,0,0,0-4.73,0,4.56,4.56,0,0,0-2.21,1.14c-.3.35-.34.47-.3.82.15,1.06,1.78,2.48,3.64,3.18a5.84,5.84,0,0,0,3.29,0,4.06,4.06,0,0,0,1.78-1.08c.27-.27.56-.46.62-.42a9,9,0,0,1-.1,3.55c-.59,2.37-2.2,4.21-5,5.7a33.43,33.43,0,0,1-6.06,2.3c-.11,0-.14-.18-.13-1.06,0-1.36.57-23.8.79-32.2.05-2.13.07-3.91,0-4S420.54,295.65,420.47,295.76Zm1.24,52.95c.06,3.45.15,6.53.17,6.86.06.51,0,.57-.12.52a9.81,9.81,0,0,1-2.52-2,6.79,6.79,0,0,1-2.37-5.08,6,6,0,0,1,1.92-4.44,12.35,12.35,0,0,1,2.72-2.12S421.63,345.26,421.71,348.71Zm5.79-5.66a9.2,9.2,0,0,1,3.39,3.89,7.45,7.45,0,0,1,.16,3.55,8.33,8.33,0,0,1-2.7,4.13,10.42,10.42,0,0,1-2.13,1.51c-.06,0-.07-.19,0-.42s.11-3.3.17-6.84.16-6.42.19-6.42S427,342.72,427.5,343.05Zm-5.14,31.45c.05,2.11.08,3.88.07,3.9a9.66,9.66,0,0,1-1.91-1.43,6.69,6.69,0,0,1-2-4.57c0-1.84.74-3.19,2.67-4.88l.92-.79.07,1.95C422.23,369.75,422.3,372.37,422.36,374.5Zm5.46-6.08a6.29,6.29,0,0,1,1.2,1.69,3.5,3.5,0,0,1,.51,1.87,6.54,6.54,0,0,1-2,5,10,10,0,0,1-1.89,1.43s0-2.3.1-5.06.14-5.38.14-5.83v-.81l.59.47C426.8,367.44,427.41,368,427.82,368.42Zm-5,24.53c0,1.59.06,2.89,0,2.89a10,10,0,0,1-1.57-2.21,2.89,2.89,0,0,1-.35-1.54,3.14,3.14,0,0,1,1.15-2.54l.61-.6,0,.55C422.7,389.8,422.76,391.35,422.8,393Zm3.43-3.22a3.13,3.13,0,0,1,.95,2.36c0,1.11-.33,1.83-1.54,3.34a2.19,2.19,0,0,1-.39.41s0-1,0-2.28.08-2.8.09-3.43c0-1.08,0-1.13.22-1A4.26,4.26,0,0,1,426.23,389.73Z" transform="translate(-367.45 -284)"/><path d="M394.29,296.42a20.75,20.75,0,0,0-1.77,1.44c-5.51,4.8-10,7.84-14.25,9.72-1.48.67-1.73.91-1.43,1.43s.81.67,2.11.8c2.76.28,4.68-.32,8.57-2.62,3.63-2.16,8.44-5.79,8.87-6.71.19-.39.19-.4-.24-1.36a14.42,14.42,0,0,1-.9-2.56C395.16,296.21,394.76,296.16,394.29,296.42Z" transform="translate(-367.45 -284)"/><path d="M452.83,296.52a1.24,1.24,0,0,0-.11.42,11.66,11.66,0,0,1-.83,2.27c-.4.87-.4.88-.21,1.27.43.92,5.24,4.55,8.87,6.71,3.89,2.3,5.81,2.9,8.57,2.62,1.3-.13,1.87-.35,2.12-.8s0-.76-1.44-1.43c-4.41-1.94-8.72-4.92-14.92-10.29C453.59,296.17,453,296,452.83,296.52Z" transform="translate(-367.45 -284)"/><path d="M396.79,301.5c-.09,0-.9.78-1.82,1.66a40.91,40.91,0,0,1-9.13,6.91l-1.3.76,0,.38c0,.37.08.41.53.55a11.43,11.43,0,0,0,3.75,0,15.86,15.86,0,0,0,5.76-3,64.53,64.53,0,0,0,5.39-4.52c.21-.4,0-.71-.83-1.19a6.79,6.79,0,0,1-1.33-1.07C397.25,301.43,397.13,301.37,396.79,301.5Z" transform="translate(-367.45 -284)"/><path d="M450.24,302.05a6.83,6.83,0,0,1-1.34,1.08c-.82.48-1,.79-.83,1.19a63.41,63.41,0,0,0,5.4,4.52,15.82,15.82,0,0,0,5.75,3,11.43,11.43,0,0,0,3.75,0c.46-.14.5-.18.53-.55l0-.38-1.3-.76a41.06,41.06,0,0,1-9.15-6.92,12.8,12.8,0,0,0-1.95-1.68C450.9,301.41,450.77,301.48,450.24,302.05Z" transform="translate(-367.45 -284)"/><path d="M401,304.44a2.55,2.55,0,0,0-.58.57,43.35,43.35,0,0,1-5.86,5.88c-1.31,1.14-1.47,1.34-1.29,1.67.28.53,1.41.76,2.61.55,3.18-.55,9.08-5.56,9.08-7.72,0-.18,0-.34-.07-.36a7.74,7.74,0,0,0-1.2-.19,11.72,11.72,0,0,1-1.76-.34l-.66-.21Z" transform="translate(-367.45 -284)"/><path d="M446.09,304.51a11.83,11.83,0,0,1-1.71.33,6.83,6.83,0,0,0-1.17.19c-.06,0-.09.18-.09.36,0,2.16,5.9,7.17,9.08,7.72,1.2.21,2.34,0,2.61-.55.18-.33,0-.53-1.29-1.67a43.55,43.55,0,0,1-5.88-5.9c-.25-.35-.79-.76-.91-.69Z" transform="translate(-367.45 -284)"/><path d="M938.66,284.17a5.75,5.75,0,0,0-3.46,2.64,5.49,5.49,0,0,0,3.14,7.79,6,6,0,0,0,3.25,0,5.48,5.48,0,0,0,3.78-5.15,5.16,5.16,0,0,0-1.6-3.86A5.37,5.37,0,0,0,938.66,284.17Z" transform="translate(-367.45 -284)"/><path d="M919.89,284.49a14.11,14.11,0,0,0-5.37,1.6c-2.5,1.33-4.9,2.92-11,7.26-8,5.75-11.91,8.11-17.32,10.53-2.38,1.06-2.86,1.32-2.86,1.54s.53.92,1.17,1.25a7.18,7.18,0,0,0,4,.5,14.43,14.43,0,0,0,5.75-1.65,92.61,92.61,0,0,0,12.78-7.8,24.24,24.24,0,0,0,4.17-4.09c.56-.85.76-1.05,1-1s.16.37.16,1.46a10.08,10.08,0,0,0,1.43,5.47,10.94,10.94,0,0,0,3,3,8.88,8.88,0,0,0,5,1.17c1.45,0,1.46,0,1.46.25a1,1,0,0,1-.33.56c-.64.62-.71,1.56-.18,2.75a9.68,9.68,0,0,0,12.86,4.62l.61-.31,0-1.65c-.07-4-.17-6.8-.25-6.84a3.2,3.2,0,0,0-1,.16c-2.68.69-4.94.22-6.36-1.32a4.58,4.58,0,0,1-1.27-2.5c-.14-1.1,0-1.29,1.18-2.49,2-1.89,2.65-3.11,2.75-4.83a5.61,5.61,0,0,0-.13-1.65,10,10,0,0,0-2.34-4.12C927.16,284.74,923.73,284,919.89,284.49Z" transform="translate(-367.45 -284)"/><path d="M955.79,284.44a12.19,12.19,0,0,0-3.49,1.06,7.16,7.16,0,0,0-3,3.49,6.08,6.08,0,0,0-.68,3.16c.1,1.72.78,2.94,2.75,4.83,1.23,1.2,1.32,1.39,1.18,2.49a4.58,4.58,0,0,1-1.27,2.5c-1.42,1.54-3.69,2-6.37,1.32a3.12,3.12,0,0,0-.94-.16c-.08,0-.18,2.85-.25,6.84l0,1.65.61.31a9.68,9.68,0,0,0,12.86-4.62c.53-1.19.46-2.13-.18-2.75a1,1,0,0,1-.33-.56c0-.25,0-.25,1.47-.25a8.81,8.81,0,0,0,5-1.17,11,11,0,0,0,3-3,10.08,10.08,0,0,0,1.43-5.47c0-1.88.14-1.93,1.11-.49a24.24,24.24,0,0,0,4.17,4.09,92.61,92.61,0,0,0,12.78,7.8,14.43,14.43,0,0,0,5.75,1.65,7.18,7.18,0,0,0,4-.5c.64-.33,1.17-.89,1.17-1.25s-.48-.48-2.87-1.54c-5.4-2.42-9.28-4.78-17.31-10.53-4.86-3.48-6.25-4.43-8.3-5.7a27,27,0,0,0-4.35-2.34A19.84,19.84,0,0,0,955.79,284.44Z" transform="translate(-367.45 -284)"/><path d="M936.4,295.76c0,.05,0,1.8.05,3.89s.14,5.94.2,8.55.17,6.65.23,9,.15,6.58.22,9.43.12,5.45.14,5.77,0,.58-.1.58a35.31,35.31,0,0,1-3.95-1.29c-3-1.21-4.93-2.61-6.14-4.44a6.91,6.91,0,0,1-1.18-4.12c-.06-1.88,0-2,.72-1.28a9.07,9.07,0,0,0,.81.68,5.6,5.6,0,0,0,4.31.36c1.89-.71,3.44-2.07,3.59-3.13a.84.84,0,0,0-.3-.83c-.77-.88-2.26-1.33-4.41-1.33-3,0-4.89.69-6.71,2.49a7.81,7.81,0,0,0-2.46,5.72,10.1,10.1,0,0,0,3.35,7.11,24.06,24.06,0,0,0,5.69,4.14l.91.52-1,.7a18.39,18.39,0,0,0-3.49,3.44,11.35,11.35,0,0,0-1.11,11.47c1.15,2.72,3.16,4.92,6.71,7.35l1,.65-.89.62c-3.34,2.34-5.14,4.63-5.82,7.42a13.33,13.33,0,0,0,0,4.5,17.06,17.06,0,0,0,5.69,9.49l1,.86-.59.62a9.46,9.46,0,0,0-2.83,6.74c0,3.53,1.39,5.68,5.91,9.12l.32.24-.91.84c-2.19,2-3.12,3.87-3.12,6.19a8,8,0,0,0,1.54,4.71c.71,1,1.19,1.5,1.28,1.27a10.66,10.66,0,0,0-.21-1.85,8.2,8.2,0,0,1-.13-3.68,5.51,5.51,0,0,1,1.55-2.6,10.4,10.4,0,0,1,2.66-2.07c.05,0,.16,3.67.37,13.14.08,3,.17,6.16.2,6.95l.08,1.44h.77l.08-1.33c0-.72.12-3.82.2-6.89.21-9.26.32-13.26.37-13.31s1.5.92,2.58,2a5.68,5.68,0,0,1,1.27,1.72l.46.93v1.33a12.91,12.91,0,0,1-.26,2.69,7.93,7.93,0,0,0-.19,1.54c.07.15.12.13.4-.13a11.73,11.73,0,0,0,1.72-2.55,7.15,7.15,0,0,0,.68-3.58c-.1-2.31-.93-3.91-3-5.83a7.13,7.13,0,0,1-.9-.88,5.09,5.09,0,0,1,1-.82c3.72-2.81,5.2-5.23,5.21-8.57a9.53,9.53,0,0,0-2.84-6.74l-.59-.62,1.09-.95a17,17,0,0,0,5.61-9.35,12.83,12.83,0,0,0-.07-4.79c-.72-2.67-2.43-4.82-5.59-7.06l-1-.74.95-.65a26.17,26.17,0,0,0,4.63-4,14.48,14.48,0,0,0,2.88-5.84,14.28,14.28,0,0,0,0-5.1,13.65,13.65,0,0,0-5.35-7.36l-1-.7,1.2-.68c5.87-3.33,8.76-7,8.75-11.19a8.36,8.36,0,0,0-6.64-7.91,14.77,14.77,0,0,0-4.74,0,4.57,4.57,0,0,0-2.2,1.14c-.3.35-.34.47-.3.82.14,1.06,1.78,2.48,3.64,3.18a5.84,5.84,0,0,0,3.29,0,4,4,0,0,0,1.77-1.08c.28-.27.57-.46.63-.42a9,9,0,0,1-.1,3.55c-.59,2.37-2.2,4.21-5,5.7a33.43,33.43,0,0,1-6.06,2.3c-.11,0-.14-.18-.13-1.06,0-1.36.56-23.8.78-32.2.06-2.13.08-3.91,0-4S936.47,295.65,936.4,295.76Zm1.24,52.95c.06,3.45.15,6.53.17,6.86.06.51,0,.57-.12.52a9.81,9.81,0,0,1-2.52-2,6.8,6.8,0,0,1-2.38-5.08,6,6,0,0,1,1.92-4.44,12.59,12.59,0,0,1,2.73-2.12S937.56,345.26,937.64,348.71Zm5.79-5.66a9.11,9.11,0,0,1,3.38,3.89,7.32,7.32,0,0,1,.17,3.55,8.4,8.4,0,0,1-2.7,4.13,10.71,10.71,0,0,1-2.13,1.51c-.06,0-.07-.19,0-.42s.11-3.3.17-6.84.16-6.42.19-6.42S942.93,342.72,943.43,343.05Zm-5.14,31.45c.05,2.11.07,3.88.06,3.9a10,10,0,0,1-1.9-1.43,6.69,6.69,0,0,1-2-4.57c0-1.84.74-3.19,2.67-4.88l.91-.79.08,1.95C938.16,369.75,938.23,372.37,938.29,374.5Zm5.46-6.08a6.29,6.29,0,0,1,1.2,1.69,3.59,3.59,0,0,1,.51,1.87,6.54,6.54,0,0,1-2,5,10,10,0,0,1-1.89,1.43s0-2.3.09-5.06.15-5.38.15-5.83v-.81l.58.47C942.73,367.44,943.34,368,943.75,368.42Zm-5,24.53c0,1.59,0,2.89,0,2.89a10.34,10.34,0,0,1-1.58-2.21,3,3,0,0,1-.34-1.54,3.14,3.14,0,0,1,1.15-2.54l.61-.6,0,.55C938.63,389.8,938.68,391.35,938.73,393Zm3.43-3.22a3.13,3.13,0,0,1,1,2.36c0,1.11-.33,1.83-1.55,3.34a2,2,0,0,1-.38.41,22.33,22.33,0,0,1,0-2.28c0-1.27.08-2.8.09-3.43,0-1.08,0-1.13.22-1A4.26,4.26,0,0,1,942.16,389.73Z" transform="translate(-367.45 -284)"/><path d="M910.21,296.42c-.18.11-1,.75-1.76,1.44-5.52,4.8-10,7.84-14.25,9.72-1.48.67-1.73.91-1.44,1.43s.82.67,2.12.8c2.76.28,4.68-.32,8.57-2.62,3.63-2.16,8.44-5.79,8.87-6.71.19-.39.19-.4-.24-1.36a14.37,14.37,0,0,1-.91-2.56C911.09,296.21,910.69,296.16,910.21,296.42Z" transform="translate(-367.45 -284)"/><path d="M968.75,296.52a1.53,1.53,0,0,0-.11.42,11.39,11.39,0,0,1-.82,2.27c-.4.87-.4.88-.21,1.27.43.92,5.24,4.55,8.87,6.71,3.89,2.3,5.81,2.9,8.57,2.62,1.3-.13,1.87-.35,2.11-.8s.05-.76-1.43-1.43c-4.41-1.94-8.72-4.92-14.92-10.29C969.52,296.17,969,296,968.75,296.52Z" transform="translate(-367.45 -284)"/><path d="M912.72,301.5c-.09,0-.91.78-1.82,1.66a41,41,0,0,1-9.14,6.91l-1.3.76,0,.38c0,.37.07.41.53.55a11.43,11.43,0,0,0,3.75,0,15.82,15.82,0,0,0,5.75-3,63.41,63.41,0,0,0,5.4-4.52c.21-.4,0-.71-.83-1.19a6.79,6.79,0,0,1-1.33-1.07C913.18,301.43,913.06,301.37,912.72,301.5Z" transform="translate(-367.45 -284)"/><path d="M966.17,302.05a6.83,6.83,0,0,1-1.34,1.08c-.82.48-1,.79-.83,1.19a64.53,64.53,0,0,0,5.39,4.52,15.86,15.86,0,0,0,5.76,3,11.43,11.43,0,0,0,3.75,0c.45-.14.5-.18.53-.55l0-.38-1.3-.76a41.23,41.23,0,0,1-9.14-6.92,13.34,13.34,0,0,0-1.95-1.68C966.82,301.41,966.7,301.48,966.17,302.05Z" transform="translate(-367.45 -284)"/><path d="M916.92,304.44a2.55,2.55,0,0,0-.58.57,44,44,0,0,1-5.86,5.88c-1.31,1.14-1.47,1.34-1.29,1.67.27.53,1.41.76,2.61.55,3.18-.55,9.08-5.56,9.08-7.72,0-.18,0-.34-.08-.36a7.27,7.27,0,0,0-1.19-.19,11.72,11.72,0,0,1-1.76-.34l-.66-.21Z" transform="translate(-367.45 -284)"/><path d="M962,304.51a11.31,11.31,0,0,1-1.71.33,6.83,6.83,0,0,0-1.16.19c-.06,0-.09.18-.09.36,0,2.16,5.9,7.17,9.08,7.72,1.2.21,2.33,0,2.61-.55.18-.33,0-.53-1.29-1.67a43.55,43.55,0,0,1-5.88-5.9c-.25-.35-.79-.76-.92-.69Z" transform="translate(-367.45 -284)"/></svg>