<svg id="Layer_1" data-name="Layer 1" xmlns="http://www.w3.org/2000/svg" viewBox="0 0 59.2 111.06"><defs><style>.cls-1{fill:none;stroke:red;stroke-miterlimit:10;stroke-width:3px;}</style></defs><title>Untitled-7</title><path class="cls-1" d="M889,277.44s10.32-.25,12.62-2.55-9.21-1-11.42.37-6.34,23.81-5.33,29.33,10,12.05,11.86,13.06c0,0,6.84,5,9.74,6.7a9.35,9.35,0,0,0,1,.52" transform="translate(-883.17 -272.13)"/><path class="cls-1" d="M925.17,276.93s-9.1.77-11.4-1.53,8.19-1.52,10.39-.14,6.35,23.81,5.34,29.33-10,12.05-11.86,13.06c0,0-8.93,6.48-10.71,7.22" transform="translate(-883.17 -272.13)"/><path class="cls-1" d="M907.39,324s-6.6,21.92-5,33.47c1.38,10.15,5,26.21,18.73,24.06,13.48-2.12,19.28-6.8,19.65-19.28s.3-27.06-4.59-34" transform="translate(-883.17 -272.13)"/><circle class="cls-1" cx="48.49" cy="51.84" r="6.88"/></svg>