<svg id="Layer_1" data-name="Layer 1" xmlns="http://www.w3.org/2000/svg" viewBox="0 0 147.05 70.06"><defs><style>.cls-1,.cls-3{fill:none;}.cls-1,.cls-2,.cls-3{stroke:red;stroke-miterlimit:10;}.cls-1{stroke-width:3px;}.cls-2{fill:#fff;}.cls-2,.cls-3{stroke-width:2px;}</style></defs><title>Untitled-7</title><path class="cls-1" d="M685.74,529.79v-6.87a1.69,1.69,0,0,1,1.69-1.69h84.29a1.69,1.69,0,0,1,1.69,1.69V573.7a1.69,1.69,0,0,1-1.69,1.69h-5.9" transform="translate(-627.86 -519.73)"/><path class="cls-1" d="M687,575.34a1.84,1.84,0,0,0,.41,0H742.2" transform="translate(-627.86 -519.73)"/><path class="cls-1" d="M670.66,575.39h15.7a4.65,4.65,0,0,0,.66,0,4.48,4.48,0,0,0,3.82-4.43V534.27a4.49,4.49,0,0,0-4.48-4.48H660.44a4.47,4.47,0,0,0-3.55,1.76l-11.52,15a4.45,4.45,0,0,1-3.55,1.75h-8a4.48,4.48,0,0,0-4.48,4.48v18.1a4.48,4.48,0,0,0,4.48,4.48H647" transform="translate(-627.86 -519.73)"/><circle class="cls-1" cx="30.99" cy="56.7" r="11.86"/><circle class="cls-1" cx="126.15" cy="56.7" r="11.86"/><rect class="cls-2" x="48.2" y="6.19" width="5.03" height="3.87" rx="0.55" ry="0.55"/><rect class="cls-2" x="41.06" y="6.19" width="5.03" height="3.87" rx="0.55" ry="0.55"/><path class="cls-1" d="M676.34,536.84l-16.24.08A8.75,8.75,0,0,0,658,537l-6.46,8a1.65,1.65,0,0,0,1.17,2.81h23.52a1.65,1.65,0,0,0,1.65-1.65v-7C677.89,538.3,677.25,536.84,676.34,536.84Z" transform="translate(-627.86 -519.73)"/><polygon class="cls-3" points="105.38 16.78 99.23 16.75 99.2 24.49 91.45 24.46 91.42 30.6 98.9 30.64 98.86 38.38 105.28 38.41 105.31 30.66 112.79 30.7 112.82 24.56 105.34 24.52 105.38 16.78"/></svg>